PathFileType	4	(X/Y/Z)	5_coords_data.trc
DataRate	CameraRate	NumFrames	NumMarkers	Units	OrigDataRate	OrigDataStartFrame	OrigNumFrames
30.0	30.0	7	21	m	30.0	48	67
Frame#	Time	THUMB_TIP	THUMB_IP	THUMB_MCP	THUMB_CMC	INDEX_TIP	INDEX_DIP	INDEX_PIP	INDEX_MCP	MIDDLE_TIP	MIDDLE_DIP	MIDDLE_PIP	MIDDLE_MCP	RING_TIP	RING_DIP	RING_PIP	RING_MCP	PINKY_TIP	PINKY_DIP	PINKY_PIP	PINKY_MCP	WRIST
X1	Y1	Z1	X2	Y2	Z2	X3	Y3	Z3	X4	Y4	Z4	X5	Y5	Z5	X6	Y6	Z6	X7	Y7	Z7	X8	Y8	Z8	X9	Y9	Z9	X10	Y10	Z10	X11	Y11	Z11	X12	Y12	Z12	X13	Y13	Z13	X14	Y14	Z14	X15	Y15	Z15	X16	Y16	Z16	X17	Y17	Z17	X18	Y18	Z18	X19	Y19	Z19	X20	Y20	Z20	X21	Y21	Z21
46	1.5666666666666598	0.5228757799915236	-0.031907174766099056	-0.15329230174756486	0.5102417268603703	-0.03179876651667568	-0.13409936166193315	0.48202237070297993	-0.032475742446374634	-0.12098335458458825	0.4741477849482236	-0.029839280605518548	-0.07715493950769212	0.5803975330730463	0.011335458211168103	-0.15332728468313422	0.5637328204596499	0.014317175223676815	-0.14689325661587938	0.5406917584281152	0.01737026756536375	-0.13731213347649174	0.5033733873666482	0.01017315351529191	-0.11809815875315749	0.5990468981762632	0.017523659295226146	-0.1329378095793668	0.5818770207892064	0.01991031517341879	-0.12769384311946952	0.554637037008398	0.02354227255565	-0.11798808610649286	0.5140902197541456	0.017416434149953863	-0.10025174952371538	0.6007591413460095	0.013336968604405586	-0.1085405578413457	0.5846960269704287	0.018694882923259604	-0.10235435458661613	0.5618164904632519	0.02483592445783589	-0.09467357356595307	0.5236950430832676	0.017847291137332966	-0.0831568427812796	0.5982163546930064	0.009503610514337568	-0.0830837284000458	0.582560312980058	0.013680376625831214	-0.07756621240711048	0.5624015162757546	0.016054567765173666	-0.07219982154653798	0.5279871065595685	0.008242006565711946	-0.06475027509113865	0.462283081001861	-0.023011742144276925	-0.051989820119430985
47	1.599999999999993	0.526695698089615	-0.03164307405207123	-0.15026089704085877	0.5126942759320158	-0.03165304642136413	-0.13204112541450355	0.48384209313137827	-0.0328590400028661	-0.12042574220429578	0.47476054876101936	-0.029841786239590107	-0.07685612283968349	0.5805695344850484	0.011836403150926489	-0.1528451693270697	0.5638339896552917	0.014608542779869227	-0.14650192243538646	0.5407219483504093	0.01749968851568595	-0.13704228945859095	0.503283432436549	0.010494711725120176	-0.11799172725346782	0.5989760979670432	0.01733729082991331	-0.13241944394696004	0.5817894170222462	0.01981471233513421	-0.12727353481569648	0.554520458269798	0.02362076914588529	-0.11771699934981661	0.5138619379991131	0.01787517457064569	-0.10010959200588088	0.600528144822749	0.01392475277737626	-0.10808678662945997	0.5844670446497264	0.01935412212853793	-0.10195791971290827	0.5615682278131644	0.025528539412562945	-0.09436181954977713	0.5234496023628715	0.018382185025209274	-0.08293287179634684	0.5978920281963572	0.009990657453539997	-0.08283679825436291	0.582287125141783	0.014334283752821975	-0.07730327214260327	0.5621425180794762	0.016791194326712278	-0.07192085486621483	0.5277677264673521	0.008812683505610375	-0.06446427939884317	0.4622830810018608	-0.023011742144276925	-0.05198982011943096
48	1.6333333333333262	0.5298178369922343	-0.03128427990557425	-0.14750960341585262	0.5146695156105148	-0.03145923374319093	-0.13023251597407462	0.48534671843447963	-0.03310625710413295	-0.1199232541274814	0.47529517440116253	-0.02981962527417381	-0.07658672780429082	0.5808104541397132	0.012384389631100334	-0.15239201666199825	0.5640061187248588	0.014901243613249848	-0.1461246601779925	0.5408283922793595	0.017595683420479014	-0.13676822795503366	0.5032909112670215	0.010762250747376578	-0.117850569242853	0.5990564981736455	0.017448828029908436	-0.13183537670024592	0.5818316853632917	0.019882896191614097	-0.1267974072846537	0.5545108913902184	0.023691764046196107	-0.11739122355546744	0.5137498576078797	0.018221462574881664	-0.0999337939678108	0.600483651403043	0.014718639574126002	-0.10757222366134886	0.5843782365828757	0.020083830379535872	-0.10150342303092091	0.5614254093097774	0.026155957733183355	-0.09398830702566824	0.5233179232895405	0.018763529818551894	-0.08267935690886094	0.5977391487611288	0.010629691865918667	-0.08236038502232335	0.5821297554859456	0.015007369623675215	-0.07686649941831686	0.5619666489910579	0.01742496347077116	-0.07153579632526272	0.5276251374955963	0.009213700453206686	-0.06417922111233515	0.462283081001861	-0.023011742144276925	-0.051989820119430985
49	1.6666666666666594	0.5323285530842925	-0.030661600172635417	-0.14511325721803486	0.516252726528349	-0.031069823972612043	-0.1286998129155018	0.48659569626399546	-0.03318170088482986	-0.11949000663052159	0.47574005946318865	-0.029782110091316705	-0.07635663286859992	0.5811193241589413	0.01304069756828774	-0.1519121744492103	0.5642461242596771	0.015256881158650426	-0.14571672003058395	0.5410017343615461	0.01770976643932365	-0.13645974833010222	0.5033757764045403	0.011006462340713674	-0.11767174428552085	0.5992731890020618	0.017891992710958204	-0.13115514131421246	0.5819923785736477	0.020168869264339362	-0.12623686681009305	0.5545966041865023	0.023821206053983746	-0.11698800030096679	0.5137452900366056	0.018502585238762137	-0.09969550696280527	0.6005808693055007	0.015615700202819993	-0.1069340535224681	0.5844032663859212	0.020841149720220442	-0.10093573366458194	0.5613711111562829	0.0267266634585569	-0.09351545519853346	0.523269761083724	0.01905848165170765	-0.08237063826753696	0.5977129602163146	0.011396096840359027	-0.08166746691670851	0.5820570465600938	0.0157025795854695	-0.07625021909562571	0.5618534412109945	0.017995301066478953	-0.07101860575857974	0.527535702627943	0.009511622514412066	-0.06386294591684943	0.462283081001861	-0.023011742144276925	-0.05198982011943101
50	1.6999999999999926	0.5342692111061418	-0.029960625887436088	-0.14312878303785553	0.5174742227100545	-0.030623396468320574	-0.1274606912608583	0.48758437885956263	-0.03311598811380145	-0.1191417837915994	0.4761065820991087	-0.029711968718526216	-0.076170132281769	0.5815059417661462	0.013949180991711052	-0.1513782664731297	0.5645620542213124	0.015783531915956717	-0.14525129074649723	0.5412471254135303	0.017905967526913202	-0.13609054870420628	0.503544823213723	0.011247044754439273	-0.11744031411199163	0.5996135861875131	0.018660833880492445	-0.13032704883699608	0.5822618615958852	0.02067102231449458	-0.12554407945008883	0.5547689568375201	0.024019119714313697	-0.1164699413781396	0.5138202390333132	0.018756449554429233	-0.09939203945841618	0.6007918030801926	0.016579391316193015	-0.10610694043730223	0.5845213201020832	0.021616266510277593	-0.10019921059088349	0.5613903211859091	0.02726145906142996	-0.09290067175078867	0.5232781348902552	0.019322161624692802	-0.08198510277906768	0.5977632222017789	0.012261788798555884	-0.08078493863553585	0.5820325481719232	0.016419724358858745	-0.07546916339171811	0.5617776148107037	0.018545040901034038	-0.07036693612040648	0.5274809633063202	0.009757157033460584	-0.06348244313131063	0.462283081001861	-0.023011742144276925	-0.051989820119430985
51	1.7333333333333258	0.5355783494266784	-0.02938189357075649	-0.14166811665695356	0.518240102847136	-0.030255790339371202	-0.12661416335608297	0.48820663884974225	-0.03301480919336275	-0.11892008412068555	0.47635126664640326	-0.02963891106760619	-0.07604884129096559	0.5818868099389676	0.01492292152159802	-0.1509332055233722	0.564884989494951	0.01633675619675712	-0.14485544499002273	0.5415143459684608	0.018083281613028745	-0.13575750549099108	0.503761456195172	0.011424596692692912	-0.11720980151185656	0.6000049296440648	0.019388602826773793	-0.12952097931862583	0.5825874120712098	0.02111177355351579	-0.12486686670226299	0.5550013463972113	0.024130674153403087	-0.11596154414786611	0.5139561038643875	0.018916613380830172	-0.09910184199505251	0.6010826317732212	0.01746891069833001	-0.10530709857806198	0.5847118416487558	0.02227386853607427	-0.09948390264470997	0.5614825979439259	0.027654474506303206	-0.09229841064382693	0.5233549017042712	0.01946543418869373	-0.08162417848721698	0.5978807255795773	0.013050497395992733	-0.0798861797798662	0.5820659287161162	0.01702816226707249	-0.07468325922109964	0.561757910806575	0.018964675601612746	-0.06971875081734993	0.5274813453930853	0.009878810145103167	-0.06312727424825124	0.462283081001861	-0.023011742144276925	-0.051989820119430985
52	1.7666666666666588	0.5364306589738652	-0.028922833910276058	-0.14058557535031585	0.5186475542748997	-0.029963204162576917	-0.1260707960890331	0.48851797250559303	-0.03287247415218475	-0.1188206615706795	0.47646397981321453	-0.029582179203487158	-0.07599817659698072	0.5822399839498618	0.01570818167235133	-0.15057750316888135	0.565197721440879	0.016739748284956724	-0.14453621531787825	0.541788104207986	0.018160275105144508	-0.135481837505871	0.5039978994718617	0.01154657133194692	-0.11699412692824115	0.6003912844492572	0.019770820798234112	-0.12882843011325462	0.5829242640421475	0.02126973306822666	-0.12428349225840105	0.5552667634577142	0.02405096147990171	-0.11552352764978713	0.5141280847193339	0.018991604173104304	-0.09884540016788768	0.601373519084449	0.01806318268221585	-0.10464266133129502	0.584925632079638	0.022681139577975573	-0.09888579697768413	0.5616202547738781	0.02784479423641495	-0.09178818905638064	0.5234686745074769	0.01952536194611676	-0.08130177863414823	0.5980167062960884	0.01359439061101042	-0.0791170983997315	0.5821346656097295	0.01741799601287375	-0.07400428847096596	0.561783882990862	0.019210552987995566	-0.0691623461653883	0.5275194840577438	0.00990731446563864	-0.06281536501303966	0.4622830810018608	-0.023011742144276925	-0.051989820119430985
